inDegrees=no
num_controls=7
num_derivatives=13
num_iterations=122
num_multipliers=7
num_parameters=0
num_slacks=7
num_states=26
objective=0.497106
objective_accelerations=0.032407
objective_balance=0.003261
objective_effort=0.035077
objective_height=0.420861
objective_ligament=0.005500
solver_duration=1398.217948
status=Solve_Succeeded
success=true
DataType=double
version=3
OpenSimVersion=4.5
endheader
time	/jointset/ground_pelvis/pelvis_tilt/value	/jointset/ground_pelvis/pelvis_tx/value	/jointset/ground_pelvis/pelvis_ty/value	/jointset/hip_r/hip_flexion_r/value	/jointset/hip_r/hip_adduction_r/value	/jointset/hip_r/hip_rotation_r/value	/jointset/back/lumbar_extension/value	/jointset/patellofemoral_r/patellar_flexion_r/value	/jointset/knee_r/knee_flexion_r/value	/jointset/knee_r/knee_adduction_r/value	/jointset/knee_r/knee_rotation_r/value	/jointset/ankle_r/ankle_angle_r/value	/jointset/subtalar_r/subtalar_angle_r/value	/jointset/ground_pelvis/pelvis_tilt/speed	/jointset/ground_pelvis/pelvis_tx/speed	/jointset/ground_pelvis/pelvis_ty/speed	/jointset/hip_r/hip_flexion_r/speed	/jointset/hip_r/hip_adduction_r/speed	/jointset/hip_r/hip_rotation_r/speed	/jointset/back/lumbar_extension/speed	/jointset/patellofemoral_r/patellar_flexion_r/speed	/jointset/knee_r/knee_flexion_r/speed	/jointset/knee_r/knee_adduction_r/speed	/jointset/knee_r/knee_rotation_r/speed	/jointset/ankle_r/ankle_angle_r/speed	/jointset/subtalar_r/subtalar_angle_r/speed	/forceset/tau_hip_flexion_r	/forceset/tau_hip_adduction_r	/forceset/tau_hip_rotation_r	/forceset/tau_knee_flexion_r	/forceset/tau_ankle_angle_r	/forceset/tau_subtalar_angle_r	/forceset/tau_lumbar_extension	lambda_cid13_p0	lambda_cid14_p0	lambda_cid14_p1	lambda_cid14_p2	lambda_cid14_p3	lambda_cid14_p4	lambda_cid14_p5	/jointset/ground_pelvis/pelvis_tilt/accel	/jointset/ground_pelvis/pelvis_tx/accel	/jointset/ground_pelvis/pelvis_ty/accel	/jointset/hip_r/hip_flexion_r/accel	/jointset/hip_r/hip_adduction_r/accel	/jointset/hip_r/hip_rotation_r/accel	/jointset/back/lumbar_extension/accel	/jointset/patellofemoral_r/patellar_flexion_r/accel	/jointset/knee_r/knee_flexion_r/accel	/jointset/knee_r/knee_adduction_r/accel	/jointset/knee_r/knee_rotation_r/accel	/jointset/ankle_r/ankle_angle_r/accel	/jointset/subtalar_r/subtalar_angle_r/accel	gamma_cid13_p0	gamma_cid14_p0	gamma_cid14_p1	gamma_cid14_p2	gamma_cid14_p3	gamma_cid14_p4	gamma_cid14_p5
0.5	-0.09877266760204099	0.05173448786501315	0.8631193402602739	0.6950266155155027	-0.2304929502487416	-0.1324247684107029	-0.3175633382398909	0.689509723779939	0.6895097237799364	0.04214138413832372	0.1744844540958971	0.2641065520779811	0.05627309345971613	-0.2637275544494245	-0.08883108682344019	-0.3268151764769562	1.40499109360243	-0.009159855080975627	0.2583632539274628	-0.5981589461149772	1.663303598212686	1.663303598212686	-0.2742638669072109	5.337801220087446e-05	0.6108600562135965	0.1619524246652551	-0.07588846107024758	-0.01842742129762373	0.008358794799205344	-0.339816954297983	0.06199814590768514	-0.01011184189852284	0.1358058968251898	-31.92775565285585	-22.33332518355827	-4.371173665665901	-3.33306933865349	3.644085088898598	-671.2888384982939	59.92618915076693	0.05772122576865604	0.2791190518402614	-0.3372438809251513	-0.8759780967560238	-0.05058006764123222	-0.5702963618450604	1.325446188988694	-1.173030640483548	-1.173030640483548	0.387019620568361	0.01989461668642295	-0.4862956315810709	-0.06785816455034391	-1.068983762187682e-07	-1.50819577648003e-07	5.345526921620198e-07	-1.188831599276968e-06	3.506639135243858e-08	-2.027421205305113e-07	8.289042614292771e-07
0.51	-0.1014065850940248	0.05086024625268211	0.859835046479933	0.7090305024436582	-0.2305879147518117	-0.1298679750160797	-0.3234779882439208	0.7060816513730472	0.7060816513730456	0.03942092611289006	0.1744855584699598	0.2701897088431295	0.05788772032029853	-0.2630165629806377	-0.0860076750657288	-0.3299702490904741	1.395591051951886	-0.009846263235489294	0.2530711420263465	-0.584696844781505	1.650851834519377	1.650851834519377	-0.2697350356085425	0.0001226659751481186	0.6056857950398031	0.1609244756465698	-0.08114426443631582	-0.01665520139502978	0.009016667392855162	-0.3425889464593713	0.05771644955117677	-0.009506439726095991	0.1406272012843487	-30.97916142292426	-23.84557848669814	-4.488867536965484	-3.181993612343097	4.237802548739972	-674.4309864687945	59.71279061345587	0.08368297533973544	0.2853945063724244	-0.2936808447843112	-1.001319706182451	-0.07981040390422314	-0.4974866582872201	1.367723591949786	-1.315741699024346	-1.315741699024406	0.4997282694922516	-0.006485171763740422	-0.5458258788404501	-0.1275956720710901	-9.222004708383859e-08	-1.212314391067933e-07	5.384482483721728e-07	-9.657933111574062e-07	1.684215926560007e-08	-1.711194113657717e-07	7.329887161044653e-07
0.52	-0.1040322136977396	0.05001452721165535	0.8565213935948127	0.7229345284539124	-0.2306901711793366	-0.1273618663512759	-0.3292557909373313	0.7225221628361684	0.7225221628361678	0.03674853907743821	0.1744859695120794	0.2762185560928276	0.0594906012103854	-0.2620697767956088	-0.08312657256258338	-0.332686997432745	1.385018910022186	-0.01061823997191549	0.2482263079635453	-0.5707894839910983	1.637020372215279	1.637020372215278	-0.2646496689108254	-8.528837640951181e-05	0.5999981531235308	0.159603230566146	-0.08640006780250917	-0.01488298149243567	0.009674539986503765	-0.3453609386207596	0.05343475319466848	-0.008901037553668837	0.1454485057435077	-30.02298486938347	-25.36226458785218	-4.604698504209304	-3.034229685404395	4.818275008495378	-677.6483578697982	59.56164352060696	0.1048801690170932	0.2906572009270683	-0.2495790266757777	-1.110398152587374	-0.06769378402383425	-0.480840794181316	1.414498080375558	-1.448970362641254	-1.448970362641254	0.498326700378276	-0.03555384621457808	-0.5889717800768487	-0.1265173768980416	-7.227701686624966e-08	-6.249722414882639e-08	6.382691932203876e-07	-5.407082654093021e-07	-3.178550654120736e-08	-9.793561918514294e-08	6.042180007535433e-07
0.53	-0.1066473472632798	0.0491978548634874	0.8531827874119349	0.7367273137301504	-0.2308001282076694	-0.1249037985166306	-0.3348923516498758	0.7388176330628037	0.7388176330628025	0.03412789636159354	0.1744839871175497	0.2821881215580526	0.06107945018758039	-0.260922735024028	-0.08020251576306178	-0.334957097046565	1.373352941975631	-0.011379299443566	0.2434100686395368	-0.5564642933635028	1.621847847337216	1.621847847337216	-0.259428469501576	-0.0003170285524921435	0.5938309998157661	0.1581270962322278	-0.09141803735040033	-0.01324022216940528	0.0103416082587596	-0.3484219987416175	0.04948035435137225	-0.008424105900102584	0.1500689553149077	-29.06097244894628	-26.78656909518286	-4.76919883002176	-2.868369152479673	5.38154537129352	-680.928890023843	59.37874294290673	0.1247429160511613	0.2940756501946762	-0.2041660134230214	-1.222480425631058	-0.08122870327061682	-0.4786785196193153	1.45028432709602	-1.585255056185664	-1.585255056185651	0.541659474404274	-0.01790610044288801	-0.6431951101600744	-0.1640106441425108	-4.939744308375877e-08	1.38677879988055e-08	8.357328173431052e-07	9.721662383411638e-09	-1.018224739372184e-07	-1.094455081151093e-08	5.015874248842499e-07
0.54	-0.1092499850641395	0.04841058222946067	0.8498237921159811	0.7503978824669346	-0.2309178791656256	-0.1224932256788472	-0.3403839095015155	0.7549546057394985	0.7549546057394971	0.03156099422248299	0.1744795029218323	0.2880934938893931	0.06265236798493544	-0.2595706238595417	-0.07724662973434117	-0.336764820047904	1.360575602131415	-0.01217702589661464	0.2387273085911802	-0.541788911810128	1.605320862227279	1.605320862227279	-0.2539015535640861	-0.0005856486140861864	0.5871595263466496	0.1564169945981573	-0.09643600689829195	-0.01159746284637805	0.01100867653102414	-0.3514830588624757	0.04552595550807559	-0.007947174246537944	0.1546894048863074	-28.09387416661265	-28.21693845207486	-4.933756037875352	-2.703647449206692	5.942105035250298	-684.3044069467035	59.23001532317009	0.1458940475981612	0.2970230467668576	-0.1571037041798063	-1.332672512119635	-0.07502718030345781	-0.4541449390509326	1.484536265531419	-1.719862409016065	-1.719862409016068	0.559470006026404	-0.04292982331686428	-0.6898358123472172	-0.1733108369285024	-2.326892748478059e-08	1.097392140584074e-07	1.141226639812082e-06	6.988310341403761e-07	-1.955463281978807e-07	9.132265292459293e-08	4.278778543988863e-07
0.55	-0.1118382474319878	0.0476530059187528	0.8464490356662695	0.763935514454307	-0.2310431195134246	-0.1201320955528809	-0.3457268906873058	0.7709197701880065	0.7709197701880005	0.02904750636004098	0.1744738974115719	0.2939299468731919	0.0642080718151609	-0.2580520918775227	-0.07426401431370667	-0.33810706707699	1.346775548782202	-0.01286279857847767	0.2334430949684268	-0.5267548789952149	1.587496385797325	1.587496385797326	-0.2488301265420191	-0.0005039023528835492	0.580059467663236	0.1547087107200773	-0.1012526726006583	-0.01006990476714839	0.01159642156437695	-0.3547377091228707	0.04192449388219541	-0.007471109998666296	0.1591468669090541	-27.12278567768656	-29.53323464881569	-5.077480221715396	-2.543659870756403	6.415294448742005	-687.6711675081917	59.14072646987547	0.1593083701904843	0.2995241700553898	-0.1108453587067262	-1.429941098239472	-0.06383514326237158	-0.5738612388855132	1.520703742378198	-1.846084708131382	-1.846084708131164	0.4760906846778905	0.03868281677206589	-0.7308672014741725	-0.1715143021156875	-3.842465421755988e-09	1.712951737446553e-07	1.316263673806239e-06	1.138642637578292e-06	-2.535347683223417e-07	1.540598217260923e-07	3.893872389107454e-07
0.5600000000000001	-0.1144104293606785	0.04692538443831999	0.8430632447149803	0.7773298920378034	-0.231174914154269	-0.1178254678961415	-0.3509179581543656	0.7867002209825856	0.7867002209825751	0.02658375509469632	0.1744701005571104	0.2996932440091296	0.06574630737883122	-0.256354536028038	-0.07125566367932613	-0.3389717203634284	1.331924721356294	-0.01348788450572618	0.2278268147458293	-0.5114061680640241	1.568378131441519	1.568378131441521	-0.2439542341446423	-0.0002239174543525568	0.5725283567743927	0.1529233412871316	-0.1060693383030264	-0.008542346687919025	0.01218416659773177	-0.3579923593832657	0.03832303225631508	-0.0069950457507953	0.1636043289318007	-26.14911220834338	-30.85752906330348	-5.223367110240652	-2.382455781069883	6.899977849659311	-691.1587644243964	59.04425633695229	0.1816988210913205	0.3021700895160684	-0.0615849556503141	-1.542827327458752	-0.06288982938052162	-0.5205582590122774	1.547471888786993	-1.978617994186423	-1.978617994186418	0.5203630810951435	-0.003282095851309494	-0.7760462534331366	-0.1887279479164825	7.541532398124572e-09	1.916725737828796e-07	1.334752561630617e-06	1.279296919033359e-06	-2.686407114833629e-07	1.693609486060677e-07	3.931593694192703e-07
0.5700000000000001	-0.1169647136580852	0.04622795487353362	0.8396712023669444	0.7905705655644674	-0.231312693404279	-0.1155757561042607	-0.3559540243309345	0.8022831730259082	0.8022831730259015	0.02416827905595743	0.1744693478143108	0.3053791515354531	0.06726625458216008	-0.25446547567292	-0.06822726670773527	-0.339355745682991	1.316031763030429	-0.01407274166130629	0.2222005297183131	-0.4957650638897091	1.548010034675071	1.548010034675073	-0.2390611434433229	1.69407146251896e-05	0.5645850348906915	0.1510298486405463	-0.1108318309227548	-0.006971355329178552	0.01268631769488484	-0.3611004542496205	0.03467847049866213	-0.006505022293099808	0.1679919030349824	-25.17447072618013	-32.18958443453833	-5.364844343564934	-2.221620563870502	7.392118683732727	-694.5488888420164	58.92962658261231	0.1980525488794678	0.3035664494157451	-0.01462518276886316	-1.639240856664289	-0.05667945192773957	-0.5708417425331779	1.578730185761075	-2.096244696257883	-2.096244696257951	0.4859904394673507	0.0295880833640443	-0.8137286290454846	-0.194726311208848	1.292135351213749e-08	1.988501749871773e-07	1.330180956310747e-06	1.323688959801712e-06	-2.731796856210466e-07	1.744308438287149e-07	4.071041497901798e-07
0.58	-0.1194989987707092	0.0455608876681502	0.836277756993181	0.80364696735357	-0.231456400384501	-0.1133797427862374	-0.3608324193649589	0.8176563762658895	0.8176563762658866	0.02180417559919516	0.1744693673152193	0.3109835751482982	0.06876625358138723	-0.2523546990715052	-0.0651831917987372	-0.3392523255089304	1.299070373844009	-0.01467343054812578	0.2170871199743215	-0.4798719395551014	1.526428370773266	1.526428370773268	-0.2336797177493232	-6.946871272825403e-05	0.5562315740787157	0.1489337004667891	-0.1155943235424831	-0.005400363970469345	0.0131884687920369	-0.3642085491159751	0.03103390874100922	-0.006014998835404143	0.1723794771381642	-24.20060396119939	-33.53050700729327	-5.509291251764589	-2.058691060339568	7.8994527626144	-698.0727989456019	58.79951235117186	0.2260420703506417	0.3053056769976226	0.03590414307515995	-1.756513499569593	-0.06605617562839754	-0.4179832023073766	1.597875920845535	-2.221331421257891	-2.221331421257886	0.6180300796311972	-0.06873561511757761	-0.8580740390880544	-0.2292590533508727	1.048178170688121e-08	1.888373405007806e-07	1.295577080849532e-06	1.242716222001326e-06	-2.639570256818264e-07	1.661763443348419e-07	4.342970323074497e-07
